<svg xmlns="http://www.w3.org/2000/svg" viewBox="0 0 58 255" width="58" height="255">
	<g fill="#FFFFFF">
		<path d="M 0 28 L 18 56 L 20 56 L 2 28 L 20 0 L 18 0 L 0 28 Z" />
	</g>
	<g fill="#FFFFFF" transform="translate(0 100)">
		<path d="M 29 0 L 0 29 L 1.5 30.5 L 29 3 L 56.5 30.5 L 58 29 L 29 0 Z" />
		<path d="M 8 30 L 8 57 L 24 57 L 24 40 L 35 40 L 35 57 L 51 57 L 51 31 L 49 31 L 49 55 L 37 55 L 37 38 L 22 38 L 22 55 L 10 55 L 10 30 L 8 30 Z" />
	</g>
	<g fill="#FFFFFF" transform="translate(0 200)">
		<path d="M 8.71 18 C 8.71 9 16 1.71 25 1.71 C 34 1.71 41.3 9 41.3 18 C 41.3 27 34 34.3 25 34.3 C 16 34.3 8.71 27 8.71 18 ZM 7 18 C 7 28 15 36 25 36 C 35 36 43 28 43 18 C 43 8 35 0 25 0 C 15 0 7 8 7 18 Z" />
		<path d="M 0 54 L 1.375 54.9688 L 13 37 L 11.6094 36.0781 L 0 54 Z" />
	</g>
</svg>
